<svg xmlns="http://www.w3.org/2000/svg" viewBox="0 0 600 320"><defs><linearGradient id="s" x2="0" y2="1"><stop stop-color="#f6f9f7"/><stop offset="1" stop-color="#e1eae5"/></linearGradient><linearGradient id="w" x2="0" y2="1"><stop stop-color="#cfe1e6"/><stop offset="1" stop-color="#eef5f6"/></linearGradient><linearGradient id="a" x2="1"><stop stop-color="#ffffff"/><stop offset="1" stop-color="#e8efeb"/></linearGradient><linearGradient id="l" x2="1" y2="1"><stop stop-color="#9cc3a6"/><stop offset="1" stop-color="#4f7d62"/></linearGradient></defs><path fill="url(#s)" d="M0 0h600v320H0z"/><path d="M0 190 120 132l90 46 120-70 110 62 70-34 90 40v24H0z" fill="#c9d9d0"/><path fill="url(#w)" d="M0 206h600v114H0z"/><path d="M330 244h120M380 266h80M120 258h90" stroke="#fff" stroke-width="3" stroke-linecap="round" opacity=".8"/><path d="M360 320V150a90 90 0 0 1 180 0v170h-34V152a56 56 0 0 0-112 0v168z" fill="url(#a)" stroke="#d4e0d9" stroke-width="2"/><path d="M398 320V196h104v124" fill="#eef4f1" opacity=".7"/><path d="M450 196v124M398 258h104" stroke="#d4e0d9" stroke-width="2"/><path d="M80 320h70l-8-46H88z" fill="#dfe7e2"/><path d="M115 276c-30-40-34-84-14-118 22 36 22 80 14 118zm4 0c6-44 30-78 66-92-4 42-30 76-66 92zm-6 0c-30-24-58-34-92-30 20 30 52 40 92 30z" fill="url(#l)"/><circle cx="540" cy="70" r="26" fill="#fff" opacity=".9"/></svg>
